# xmcd
#
# Track frame offsets:
#	150
#	21172
#	35582
#	55790
#	72675
#	85977
#	97920
#	113945
#	130842
#	154430
#	169825
#	194532
#	220910
#	240797
#	257435
#	276897
#	296217
#	328650
#
# Disc length: 4795 seconds
#
# Revision: 1
# Processed by: cddbd v1.5PL3 Copyright (c) Steve Scherf et al.
# Submitted via: audiograbber 1.82.02
#
DISCID=0d12b912
DTITLE=CLUB SHINKAWA - The Best
DYEAR=2003
DGENRE=Trance
TTITLE0=DJ SHINKAWA vs Future Breeze - The Moon
TTITLE1=Mega'Lo Mania - Emotion (Dudestadt remix)
TTITLE2=Darren Tate vs Jurgen Vries - Fall From Grace
TTITLE3=Untidy Dubs - Funky Groove (Flash Harry's Disco Workout remix)
TTITLE4=Mauro Picotto - Pulsar (DJ SHINKAWA remix)
TTITLE5=DJ Gert - Give Me Some More (Public Domain Debunk remix)
TTITLE6=Dave Holmes - Freedom (Lee Haslam remix)
TTITLE7=Perfect Phase - Slammer Jammer (Warp Brother mix)
TTITLE8=Nik Denton and Paul King - 2 The Beat
TTITLE9=MIDI 4 - I Miss U (Essential DJ Team remix)
TTITLE10=The Disco Brothers - The Sound (Scratch 'n' Breaks mix)
TTITLE11=DJ SHINKAWA - On The Moon
TTITLE12=Paul Maddox feat. Niki Mak - Reach Out (Original mix)
TTITLE13=Anne Savage - Hellraiser
TTITLE14=Tony De Vit - The Dawn (Paul Janes remix)
TTITLE15=Energy 52 - Cafe Del Mar (Marco V remix)
TTITLE16=T-78 - Trance On The Beach (Original mix)
TTITLE17=CLUB SHINKAWA - データトラック
EXTD=
EXTT0=
EXTT1=
EXTT2=
EXTT3=
EXTT4=
EXTT5=
EXTT6=
EXTT7=
EXTT8=
EXTT9=
EXTT10=
EXTT11=
EXTT12=
EXTT13=
EXTT14=
EXTT15=
EXTT16=
EXTT17=
PLAYORDER=
